<svg xmlns="http://www.w3.org/2000/svg" width="1280" height="440" viewBox="0 0 1280 440"><defs><radialGradient id="g" cx="50%" cy="0%" r="80%"><stop offset="0" stop-color="#a78bdb" stop-opacity="0.18"/><stop offset="65%" stop-color="#a78bdb" stop-opacity="0"/></radialGradient></defs><rect width="1280" height="440" fill="#0c0a12"/><rect width="1280" height="440" fill="url(#g)"/><g transform="translate(470,74) scale(2.2)"><g fill="#a78bdb"><rect x="1.5" y="1.5" width="6.5" height="6.5" rx="1.8"/><rect x="1.5" y="9" width="6.5" height="6.5" rx="1.8"/><rect x="1.5" y="16.5" width="6.5" height="6.5" rx="1.8"/><rect x="1.5" y="24" width="6.5" height="6.5" rx="1.8"/><rect x="24" y="9" width="6.5" height="6.5" rx="1.8"/><rect x="24" y="16.5" width="6.5" height="6.5" rx="1.8"/><rect x="24" y="24" width="6.5" height="6.5" rx="1.8"/><rect x="9" y="9" width="6.5" height="6.5" rx="1.8"/><rect x="16.5" y="16.5" width="6.5" height="6.5" rx="1.8"/></g><rect x="24.5" y="0.4" width="5.5" height="5.5" rx="1.6" fill="#c0a8ec" transform="rotate(18 27.25 3.15)"/></g><text x="560" y="130" font-family="DejaVu Sans, sans-serif" font-weight="bold" font-size="62" fill="#ece6f5" letter-spacing="-2">NoteBit</text><text x="640" y="248" font-family="DejaVu Sans, sans-serif" font-weight="bold" font-size="40" fill="#ece6f5" text-anchor="middle" letter-spacing="-1">Notes without the bloat. <tspan fill="#a78bdb">Or the bill.</tspan></text><text x="640" y="318" font-family="DejaVu Sans, sans-serif" font-size="23" fill="#8d8499" text-anchor="middle">Self-hostable workspace  ·  docs  ·  boards  ·  knowledge graph  ·  real-time  ·  no seat tax</text></svg>